# xmcd
#
# Track frame offsets:
#	150
#	16087
#	28968
#	49529
#	74298
#	94197
#	114313
#	133001
#	147667
#	165560
#	183684
#	196305
#	212429
#	230998
#
# Disc length: 3164 seconds
#
# Revision: 1
# Processed by: cddbd v1.5.2PL0 Copyright (c) Steve Scherf et al.
# Submitted via: audiograbber 1.82.02
#
DISCID=cb0c5a0e
DTITLE=Diana Ross - I Love You
DYEAR=2007
DGENRE=R&B
TTITLE0=Remember
TTITLE1=More Today Than Yesterday
TTITLE2=I Want You
TTITLE3=I Want You (That's All That Really Matters)
TTITLE4=What About Love
TTITLE5=The Look Of Love
TTITLE6=Lovely Day
TTITLE7=Crazy Little Thing Called Love
TTITLE8=Only You
TTITLE9=To Be Loved
TTITLE10=I Will
TTITLE11=You Are So Beautiful
TTITLE12=Always And Forever
TTITLE13=Remember (Reprise)
EXTD=
EXTT0=
EXTT1=
EXTT2=
EXTT3=
EXTT4=
EXTT5=
EXTT6=
EXTT7=
EXTT8=
EXTT9=
EXTT10=
EXTT11=
EXTT12=
EXTT13=
PLAYORDER=
